<?xml version="1.0" encoding="UTF-8" standalone="no"?>
<!-- Created with Inkscape (http://www.inkscape.org/) -->

<svg
   width="512"
   height="512"
   viewBox="0 0 512 512"
   version="1.1"
   id="svg1"
   xml:space="preserve"
   inkscape:version="1.4.4 (dcaf3e7, 2026-05-05)"
   sodipodi:docname="libreStackLogoBase.svg"
   xmlns:inkscape="http://www.inkscape.org/namespaces/inkscape"
   xmlns:sodipodi="http://sodipodi.sourceforge.net/DTD/sodipodi-0.dtd"
   xmlns="http://www.w3.org/2000/svg"
   xmlns:svg="http://www.w3.org/2000/svg"><sodipodi:namedview
     id="namedview1"
     pagecolor="#ffffff"
     bordercolor="#000000"
     borderopacity="0.25"
     inkscape:showpageshadow="2"
     inkscape:pageopacity="0.0"
     inkscape:pagecheckerboard="0"
     inkscape:deskcolor="#d1d1d1"
     inkscape:document-units="px"
     inkscape:zoom="1.71875"
     inkscape:cx="203.05455"
     inkscape:cy="305.74545"
     inkscape:window-width="1909"
     inkscape:window-height="1382"
     inkscape:window-x="0"
     inkscape:window-y="30"
     inkscape:window-maximized="0"
     inkscape:current-layer="layer1" /><defs
     id="defs1" /><g
     inkscape:label="Layer 1"
     inkscape:groupmode="layer"
     id="layer1"><g
       id="g3-1-7"
       transform="matrix(61.627386,0,0,61.627386,-5598.1142,-1940.2715)"
       inkscape:export-filename="libreStackLogo.svg"
       inkscape:export-xdpi="96"
       inkscape:export-ydpi="96"><path
         style="fill:none;fill-opacity:1;fill-rule:nonzero;stroke:#782121;stroke-width:0.131019;stroke-linecap:round;stroke-dasharray:none;stroke-opacity:1;paint-order:stroke fill markers"
         d="m 94.964074,36.562183 c 0,0 -0.145111,-0.24248 -0.527677,-0.119579"
         id="path68-0-8-1" /><path
         style="fill:none;fill-opacity:1;fill-rule:nonzero;stroke:#782121;stroke-width:0.131019;stroke-linecap:round;stroke-dasharray:none;stroke-opacity:1;paint-order:stroke fill markers"
         d="m 94.978069,36.562183 c 0,0 0.145112,-0.24248 0.527677,-0.119579"
         id="path68-4-2-7-8" /><path
         style="fill:#782121;fill-opacity:1;fill-rule:nonzero;stroke:none;stroke-width:0.0160497;stroke-linecap:round;stroke-dasharray:none;stroke-opacity:1;paint-order:stroke markers fill"
         d="m 92.979903,32.165886 c 0.348208,2.48563 1.602283,3.622476 1.773706,4.704319 0.06556,0.413752 0.08923,0.828417 -0.284858,1.233557 -0.633073,0.68562 -1.598948,0.335303 -1.75659,0.260235 -0.946809,-0.450859 -1.285077,-1.244902 -1.308685,-1.488847 -0.01305,-0.134905 0.264333,0.911213 1.153545,1.128521 0.327362,0.08 0.762955,0.131535 1.078748,0.07236 0.284778,-0.05336 0.535049,-0.294038 0.695357,-0.627864 0.278857,-0.580691 -0.375339,-1.561413 -0.560507,-1.936753 -0.257446,-0.521852 -0.496596,-1.126417 -0.621612,-1.616093 -0.149804,-0.586765 -0.293456,-1.014345 -0.169104,-1.729436 z"
         id="path66-3-8-4"
         sodipodi:nodetypes="csssssssssc" /><path
         style="fill:#782121;fill-opacity:1;fill-rule:nonzero;stroke:none;stroke-width:0.0160497;stroke-linecap:round;stroke-dasharray:none;stroke-opacity:1;paint-order:stroke markers fill"
         d="m 96.983402,32.165886 c -0.348208,2.48563 -1.602282,3.622475 -1.773705,4.704319 -0.06556,0.413752 -0.08923,0.828417 0.284857,1.233557 0.633074,0.68562 1.598948,0.335303 1.75659,0.260235 0.946809,-0.450859 1.285077,-1.244902 1.308685,-1.488847 0.01306,-0.134905 -0.264333,0.911213 -1.153545,1.128521 -0.327362,0.08 -0.762955,0.131535 -1.078748,0.07236 -0.284778,-0.05336 -0.535049,-0.294038 -0.695357,-0.627864 -0.278856,-0.580691 0.37534,-1.561413 0.560508,-1.936753 0.257446,-0.521852 0.496595,-1.126417 0.621611,-1.616093 0.149805,-0.586765 0.293456,-1.014345 0.169104,-1.729436 z"
         id="path66-8-9-7-9"
         sodipodi:nodetypes="csssssssssc" /><path
         style="fill:#782121;fill-opacity:1;fill-rule:nonzero;stroke:none;stroke-width:0.00808873;stroke-linecap:round;stroke-dasharray:none;stroke-opacity:1;paint-order:stroke markers fill"
         d="m 94.929277,38.980377 c 0,0 -1.119451,0.141189 -1.703191,0.08265 -0.584571,-0.05863 -1.263538,-0.327146 -1.533241,-0.709391 -0.273285,-0.387321 -0.223652,-0.707164 -0.236451,-0.895347 -0.01243,-0.182666 0.08427,0.476125 0.384233,0.78515 0.280787,0.289267 0.457161,0.478616 1.304179,0.523434 0.846053,0.04477 1.714274,-0.182513 1.714274,-0.182513 l 0.07236,-0.01864 z"
         id="path67-9-7-7"
         sodipodi:nodetypes="csssssccc" /><path
         style="fill:#782121;fill-opacity:1;fill-rule:nonzero;stroke:none;stroke-width:0.00808873;stroke-linecap:round;stroke-dasharray:none;stroke-opacity:1;paint-order:stroke markers fill"
         d="m 95.034029,38.980378 c 0,0 1.11945,0.141189 1.70319,0.08265 0.584571,-0.05863 1.263538,-0.327146 1.533241,-0.709391 0.273284,-0.387321 0.223651,-0.707165 0.236451,-0.895347 0.01242,-0.182666 -0.08427,0.476125 -0.384234,0.78515 -0.280786,0.289267 -0.45716,0.478616 -1.304178,0.523434 -0.846053,0.04477 -1.714274,-0.182513 -1.714274,-0.182513 l -0.07236,-0.01864 z"
         id="path67-8-7-4-3"
         sodipodi:nodetypes="csssssccc" /><rect
         style="fill:#782121;fill-opacity:1;fill-rule:nonzero;stroke:none;stroke-width:0.0109316;stroke-linecap:round;stroke-dasharray:none;stroke-opacity:1;paint-order:stroke fill markers"
         id="rect68-0-4-1"
         width="0.12010875"
         height="2.4171374"
         x="94.914894"
         y="36.564079" /><g
         id="g2-9-0"
         transform="translate(0,-0.00253648)"><path
           style="fill:#d45500;fill-opacity:1;fill-rule:nonzero;stroke:none;stroke-width:0.131019;stroke-linecap:round;stroke-dasharray:none;stroke-opacity:1;paint-order:stroke fill markers"
           d="m 93.806711,37.274862 c 0,0 0.09254,-0.583836 -0.03229,-0.993185 -0.235017,-0.770645 -1.237899,-2.172487 -1.188147,-3.224555 0.02274,-0.480845 0.0073,-0.520251 0.0073,-0.520251 -0.173644,0.709229 -0.159878,1.29881 0.114728,1.992268 0.188064,0.423334 0.572984,1.101336 0.640483,1.231569 0.06625,0.127836 0.320365,0.569983 0.364806,0.90124 0.04413,0.32892 0.08321,0.613058 0.09312,0.612914 z"
           id="path69-9-15-2"
           sodipodi:nodetypes="csscssscc" /><path
           style="fill:#d45500;fill-opacity:1;fill-rule:nonzero;stroke:none;stroke-width:0.131019;stroke-linecap:round;stroke-dasharray:none;stroke-opacity:1;paint-order:stroke fill markers"
           d="m 93.679935,37.344619 c 0,0 -0.258843,-0.766091 -0.400738,-0.987016 -0.145854,-0.227089 -0.613638,-0.997112 -0.677565,-1.099757 -0.07276,-0.116821 -0.529339,-0.856845 -0.59534,-1.1977 -0.066,-0.340855 -0.05864,-0.754651 -0.05864,-0.754651 -0.165558,0.70362 -0.06322,1.188607 0.309451,1.809819 0.135789,0.207117 0.614527,0.948814 0.658788,1.032457 0.04053,0.07658 0.541808,0.759816 0.575716,0.824614 0.08547,0.163328 0.188324,0.372234 0.188324,0.372234 z"
           id="path70-8-5-3"
           sodipodi:nodetypes="cssscsssc" /><path
           style="fill:#d45500;fill-opacity:1;fill-rule:nonzero;stroke:none;stroke-width:0.131019;stroke-linecap:round;stroke-dasharray:none;stroke-opacity:1;paint-order:stroke fill markers"
           d="m 93.578114,37.453569 c -0.01974,-0.03108 -0.461088,-0.572754 -0.513192,-0.634589 -0.08425,-0.09999 -1.242157,-1.240342 -1.491473,-1.808636 -0.09913,-0.225963 -0.194234,-0.68483 -0.220052,-0.950958 -0.213542,0.853167 0.196565,1.489329 0.783882,2.05788 0.226972,0.21286 0.603636,0.627851 0.678971,0.68618 0.07534,0.05833 0.40618,0.324419 0.454676,0.378087 0.04849,0.05367 0.307188,0.272036 0.307188,0.272036 z"
           id="path71-6-5-7"
           sodipodi:nodetypes="ssssssscs"
           inkscape:transform-center-x="-2.6002346"
           inkscape:transform-center-y="-5.9455744" /><path
           style="fill:#d45500;fill-opacity:1;fill-rule:nonzero;stroke:none;stroke-width:0.131019;stroke-linecap:round;stroke-dasharray:none;stroke-opacity:1;paint-order:stroke fill markers"
           d="m 93.521844,37.688673 -0.164645,-0.05326 c 0,0 -0.540429,-0.167027 -0.940115,-0.464997 -0.905107,-0.674771 -1.287768,-1.581971 -1.317018,-1.744499 -0.0376,-0.208898 -0.01511,0.112945 -0.01511,0.112945 0,0 0.03388,0.36122 0.230555,0.675144 0.196671,0.313925 0.542944,0.780447 0.795023,0.961223 0.241217,0.172986 0.437625,0.343994 0.855996,0.441848 0.418372,0.09785 0.555317,0.07159 0.555317,0.07159 z"
           id="path72-5-8-1"
           sodipodi:nodetypes="ccsscssscc" /></g><g
         id="g2-4-2-8"
         transform="matrix(-1,0,0,1,189.97312,-0.00253648)"><path
           style="fill:#d45500;fill-opacity:1;fill-rule:nonzero;stroke:none;stroke-width:0.131019;stroke-linecap:round;stroke-dasharray:none;stroke-opacity:1;paint-order:stroke fill markers"
           d="m 93.806711,37.274862 c 0,0 0.09254,-0.583836 -0.03229,-0.993185 -0.235017,-0.770645 -1.237899,-2.172487 -1.188147,-3.224555 0.02274,-0.480845 0.0073,-0.520251 0.0073,-0.520251 -0.173644,0.709229 -0.159878,1.29881 0.114728,1.992268 0.188064,0.423334 0.572984,1.101336 0.640483,1.231569 0.06625,0.127836 0.320365,0.569983 0.364806,0.90124 0.04413,0.32892 0.08321,0.613058 0.09312,0.612914 z"
           id="path69-9-1-9-9"
           sodipodi:nodetypes="csscssscc" /><path
           style="fill:#d45500;fill-opacity:1;fill-rule:nonzero;stroke:none;stroke-width:0.131019;stroke-linecap:round;stroke-dasharray:none;stroke-opacity:1;paint-order:stroke fill markers"
           d="m 93.679935,37.344619 c 0,0 -0.258843,-0.766091 -0.400738,-0.987016 -0.145854,-0.227089 -0.613638,-0.997112 -0.677565,-1.099757 -0.07276,-0.116821 -0.529339,-0.856845 -0.59534,-1.1977 -0.066,-0.340855 -0.05864,-0.754651 -0.05864,-0.754651 -0.165558,0.70362 -0.06322,1.188607 0.309451,1.809819 0.135789,0.207117 0.614527,0.948814 0.658788,1.032457 0.04053,0.07658 0.541808,0.759816 0.575716,0.824614 0.08547,0.163328 0.188324,0.372234 0.188324,0.372234 z"
           id="path70-8-8-8-3"
           sodipodi:nodetypes="cssscsssc" /><path
           style="fill:#d45500;fill-opacity:1;fill-rule:nonzero;stroke:none;stroke-width:0.131019;stroke-linecap:round;stroke-dasharray:none;stroke-opacity:1;paint-order:stroke fill markers"
           d="m 93.578114,37.453569 c -0.01974,-0.03108 -0.461088,-0.572754 -0.513192,-0.634589 -0.08425,-0.09999 -1.242157,-1.240342 -1.491473,-1.808636 -0.09913,-0.225963 -0.194234,-0.68483 -0.220052,-0.950958 -0.213542,0.853167 0.196565,1.489329 0.783882,2.05788 0.226972,0.21286 0.603636,0.627851 0.678971,0.68618 0.07534,0.05833 0.40618,0.324419 0.454676,0.378087 0.04849,0.05367 0.307188,0.272036 0.307188,0.272036 z"
           id="path71-6-8-2-7"
           sodipodi:nodetypes="ssssssscs"
           inkscape:transform-center-x="-2.6002346"
           inkscape:transform-center-y="-5.9455744" /><path
           style="fill:#d45500;fill-opacity:1;fill-rule:nonzero;stroke:none;stroke-width:0.131019;stroke-linecap:round;stroke-dasharray:none;stroke-opacity:1;paint-order:stroke fill markers"
           d="m 93.521844,37.688673 -0.164645,-0.05326 c 0,0 -0.540429,-0.167027 -0.940115,-0.464997 -0.905107,-0.674771 -1.287768,-1.581971 -1.317018,-1.744499 -0.0376,-0.208898 -0.01511,0.112945 -0.01511,0.112945 0,0 0.03388,0.36122 0.230555,0.675144 0.196671,0.313925 0.542944,0.780447 0.795023,0.961223 0.241217,0.172986 0.437625,0.343994 0.855996,0.441848 0.418372,0.09785 0.555317,0.07159 0.555317,0.07159 z"
           id="path72-5-3-0-4"
           sodipodi:nodetypes="ccsscssscc" /></g></g></g></svg>
